<?xml version="1.0" standalone="no"?>
<!DOCTYPE svg PUBLIC "-//W3C//DTD SVG 20010904//EN"
 "http://www.w3.org/TR/2001/REC-SVG-20010904/DTD/svg10.dtd">
<svg version="1.0" xmlns="http://www.w3.org/2000/svg"
 width="222.000000pt" height="300.000000pt" viewBox="0 0 222.000000 300.000000"
 preserveAspectRatio="xMidYMid meet">
<metadata>
Created by potrace 1.10, written by Peter Selinger 2001-2011
</metadata>
<g transform="translate(0.000000,300.000000) scale(0.100000,-0.100000)"
fill="#ff2600" stroke="none">
<path d="M1096 2403 l-1079 -3 4 -779 c3 -565 7 -774 15 -758 7 15 8 124 2
362 -4 187 -7 527 -6 755 l3 415 22 -22 23 -23 -6 -702 c-3 -387 -7 -711 -9
-720 -4 -22 -4 -22 31 -3 34 18 106 20 137 4 97 -50 113 -173 30 -236 -31 -24
-46 -28 -99 -28 -47 0 -67 5 -83 19 -12 11 -21 15 -22 10 0 -5 -9 11 -20 36
l-20 45 6 -49 c3 -27 5 -59 5 -71 0 -18 7 -24 38 -30 56 -10 2054 -4 2074 6 9
5 26 9 36 9 28 0 27 -12 24 943 -3 630 -6 826 -15 825 -7 -2 -497 -4 -1091 -5z
m1094 -754 c0 -588 -3 -740 -12 -737 -16 5 -23 306 -26 992 -2 452 0 486 29
486 5 0 9 -323 9 -741z m-1077 717 c-4 -5 -1 -6 8 -1 18 12 271 16 264 5 -3
-5 9 -5 26 0 47 14 712 5 717 -9 2 -6 -2 -11 -9 -11 -10 0 -10 -3 -2 -11 7 -7
8 -20 4 -33 -4 -11 -6 -39 -5 -61 5 -65 15 -696 17 -1006 1 -187 -1 -285 -8
-284 -5 2 -22 6 -38 9 -24 6 -26 9 -17 27 8 15 8 24 0 34 -7 9 -8 15 0 20 13
8 13 52 -1 61 -8 4 -9 0 -4 -15 4 -12 2 -21 -4 -21 -14 0 -14 -43 0 -57 7 -7
5 -15 -7 -27 -9 -9 -19 -14 -22 -11 -10 10 -10 108 0 127 5 12 5 18 -1 18 -15
0 -23 -39 -19 -96 3 -48 2 -50 -36 -72 -31 -18 -41 -20 -49 -10 -6 9 -7 6 -4
-9 3 -13 1 -24 -4 -24 -5 -1 -14 -2 -21 -3 -6 0 -13 -7 -16 -15 -3 -9 0 -11 9
-7 8 4 3 -2 -10 -13 -21 -19 -20 -26 2 -22 10 1 9 -6 -5 -29 -10 -15 -10 -22
0 -32 6 -6 12 -17 12 -23 0 -5 -5 -3 -10 5 -8 13 -10 12 -10 -2 0 -10 4 -18 9
-18 5 0 11 -8 13 -18 6 -22 35 -21 -392 -20 -25 0 -85 -1 -133 -2 -49 -1 -91
1 -94 4 -3 3 -14 1 -24 -5 -15 -8 -19 -6 -20 8 -1 14 -2 15 -6 2 -4 -15 -50
-18 -72 -4 -6 3 -11 1 -11 -5 0 -6 -5 -8 -12 -4 -10 6 -72 6 -158 0 -14 -1
-28 5 -32 14 -6 13 -7 13 -7 -1 -1 -15 -28 -17 -296 -15 -162 0 -295 5 -295
10 0 5 -7 3 -15 -4 -8 -7 -15 -8 -15 -2 0 5 7 15 15 22 8 7 13 16 10 20 -3 5
0 12 6 16 8 5 9 3 4 -7 -7 -12 -6 -11 9 0 17 14 17 16 0 28 -15 11 -15 15 -3
30 9 11 10 14 2 9 -9 -5 -13 1 -14 18 -1 14 -2 32 -3 38 0 7 -14 19 -29 26
-16 8 -31 20 -34 28 -3 8 -13 14 -23 14 -10 0 -23 7 -30 16 -10 11 -23 14 -51
9 -24 -4 -40 -2 -44 5 -11 18 14 29 50 23 18 -3 35 -1 38 4 7 11 -28 15 -71 8
-26 -5 -32 -11 -32 -30 0 -13 -4 -26 -10 -30 -6 -3 -7 163 -4 457 3 255 6 573
7 707 l2 245 35 4 c19 2 36 4 37 5 7 8 940 1 936 -7z m1017 -1441 c17 -9 30
-20 30 -26 0 -6 4 -8 9 -5 5 3 14 -15 21 -40 11 -37 11 -56 1 -93 -6 -26 -9
-55 -5 -64 3 -10 1 -17 -5 -17 -6 0 -11 7 -11 15 0 11 -9 8 -36 -10 -44 -30
-93 -32 -149 -6 -47 21 -58 34 -74 83 -21 63 19 149 79 171 31 11 112 6 140
-8z m-1805 -35 c3 -5 1 -10 -4 -10 -6 0 -11 5 -11 10 0 6 2 10 4 10 3 0 8 -4
11 -10z m1626 -216 c6 -8 19 -14 28 -14 9 0 23 -5 31 -10 10 -7 -171 -10 -540
-10 -305 -1 -739 -3 -964 -6 -226 -2 -407 -1 -403 3 4 4 29 6 55 4 34 -1 58 5
87 21 l40 23 810 5 c446 3 818 3 827 1 10 -2 23 -9 29 -17z"/>
<path d="M1878 2363 c6 -2 18 -2 25 0 6 3 1 5 -13 5 -14 0 -19 -2 -12 -5z"/>
<path d="M748 2323 c12 -2 30 -2 40 0 9 3 -1 5 -23 4 -22 0 -30 -2 -17 -4z"/>
<path d="M1158 2323 c7 -3 16 -2 19 1 4 3 -2 6 -13 5 -11 0 -14 -3 -6 -6z"/>
<path d="M948 2253 c5 -21 7 -23 10 -9 2 10 0 22 -6 28 -6 6 -7 0 -4 -19z"/>
<path d="M1601 2264 c0 -11 3 -14 6 -6 3 7 2 16 -1 19 -3 4 -6 -2 -5 -13z"/>
<path d="M1621 2264 c0 -11 3 -14 6 -6 3 7 2 16 -1 19 -3 4 -6 -2 -5 -13z"/>
<path d="M833 2263 c9 -2 23 -2 30 0 6 3 -1 5 -18 5 -16 0 -22 -2 -12 -5z"/>
<path d="M995 2245 c0 -13 3 -21 8 -18 4 2 7 10 7 18 0 8 -3 16 -7 18 -5 3 -8
-5 -8 -18z"/>
<path d="M1150 2260 c0 -5 5 -10 11 -10 5 0 7 5 4 10 -3 6 -8 10 -11 10 -2 0
-4 -4 -4 -10z"/>
<path d="M1510 2266 c0 -2 7 -9 15 -16 9 -7 15 -8 15 -2 0 5 -7 12 -15 16 -8
3 -15 4 -15 2z"/>
<path d="M1718 2263 c7 -3 16 -2 19 1 4 3 -2 6 -13 5 -11 0 -14 -3 -6 -6z"/>
<path d="M1830 2254 c0 -8 5 -12 10 -9 6 4 8 11 5 16 -9 14 -15 11 -15 -7z"/>
<path d="M382 2240 c0 -14 2 -19 5 -12 2 6 2 18 0 25 -3 6 -5 1 -5 -13z"/>
<path d="M422 2240 c0 -14 2 -19 5 -12 2 6 2 18 0 25 -3 6 -5 1 -5 -13z"/>
<path d="M571 2248 c-2 -27 10 -48 28 -48 15 1 15 2 0 13 -9 7 -19 21 -22 32
-3 15 -5 16 -6 3z"/>
<path d="M611 2245 c-1 -25 15 -52 26 -42 4 5 2 11 -4 15 -6 4 -13 16 -16 27
-5 20 -5 20 -6 0z"/>
<path d="M1076 2245 c4 -8 8 -15 10 -15 2 0 4 7 4 15 0 8 -4 15 -10 15 -5 0
-7 -7 -4 -15z"/>
<path d="M1221 2244 c0 -11 3 -14 6 -6 3 7 2 16 -1 19 -3 4 -6 -2 -5 -13z"/>
<path d="M1262 2240 c0 -14 2 -19 5 -12 2 6 2 18 0 25 -3 6 -5 1 -5 -13z"/>
<path d="M1342 2240 c0 -14 2 -19 5 -12 2 6 2 18 0 25 -3 6 -5 1 -5 -13z"/>
<path d="M1932 2240 c0 -14 2 -19 5 -12 2 6 2 18 0 25 -3 6 -5 1 -5 -13z"/>
<path d="M800 2235 c0 -8 4 -15 10 -15 5 0 7 7 4 15 -4 8 -8 15 -10 15 -2 0
-4 -7 -4 -15z"/>
<path d="M1745 2240 c-3 -5 -1 -10 4 -10 6 0 11 5 11 10 0 6 -2 10 -4 10 -3 0
-8 -4 -11 -10z"/>
<path d="M1450 2230 c0 -5 5 -10 11 -10 5 0 7 5 4 10 -3 6 -8 10 -11 10 -2 0
-4 -4 -4 -10z"/>
<path d="M844 2222 c3 -6 -2 -13 -11 -16 -15 -4 -14 -4 2 -3 11 1 26 -2 33 -6
6 -5 12 -4 12 2 0 6 -10 15 -21 22 -13 6 -19 7 -15 1z"/>
<path d="M1580 2213 c0 -8 5 -13 12 -11 18 6 21 25 3 25 -8 0 -15 -7 -15 -14z"/>
<path d="M1621 2214 c0 -11 3 -14 6 -6 3 7 2 16 -1 19 -3 4 -6 -2 -5 -13z"/>
<path d="M705 2210 c-17 -7 -14 -9 13 -9 20 -1 31 3 27 9 -7 12 -13 12 -40 0z"/>
<path d="M1235 2210 c-3 -5 1 -10 10 -10 9 0 13 5 10 10 -3 6 -8 10 -10 10 -2
0 -7 -4 -10 -10z"/>
<path d="M1280 2211 c0 -5 9 -7 20 -4 11 3 20 7 20 9 0 2 -9 4 -20 4 -11 0
-20 -4 -20 -9z"/>
<path d="M1359 2209 c-10 -6 -7 -9 14 -9 29 0 35 5 14 13 -8 3 -20 1 -28 -4z"/>
<path d="M1510 2211 c0 -5 5 -13 10 -16 6 -3 10 -2 10 4 0 5 -4 13 -10 16 -5
3 -10 2 -10 -4z"/>
<path d="M1546 2212 c-3 -5 1 -9 9 -9 8 0 15 4 15 9 0 4 -4 8 -9 8 -6 0 -12
-4 -15 -8z"/>
<path d="M1478 2203 c7 -3 16 -2 19 1 4 3 -2 6 -13 5 -11 0 -14 -3 -6 -6z"/>
<path d="M1345 2170 c-4 -6 3 -10 14 -10 25 0 27 6 6 13 -8 4 -17 2 -20 -3z"/>
<path d="M606 2161 c-4 -5 3 -7 14 -4 23 6 26 13 6 13 -8 0 -17 -4 -20 -9z"/>
<path d="M1300 2153 c0 -10 -104 -13 -467 -16 -338 -1 -260 -3 283 -5 l750 -2
27 -28 27 -28 0 -526 c0 -442 -2 -527 -14 -531 -20 -8 -27 3 -15 25 7 13 8
181 4 521 -5 414 -9 506 -21 525 l-14 22 -750 0 -749 0 -21 -27 -22 -28 5
-506 c4 -278 9 -513 13 -522 8 -23 -13 -22 -24 1 -5 9 -10 247 -11 527 -2 509
-2 510 19 538 17 22 18 27 6 27 -9 0 -23 -14 -32 -31 -14 -28 -15 -88 -12
-531 1 -304 7 -512 13 -532 7 -21 17 -31 30 -31 11 -1 25 -4 32 -8 9 -6 1254
-10 1388 -5 11 0 37 1 58 1 20 0 37 4 37 8 0 5 -282 9 -627 9 -346 -1 -678 -1
-739 0 -107 0 -112 1 -118 23 -3 12 -8 249 -12 527 -5 442 -4 507 9 525 15 20
29 20 749 23 712 2 735 2 752 -17 16 -17 17 -59 16 -522 0 -319 -4 -507 -11
-515 -7 -8 -5 -14 7 -18 9 -3 14 -13 11 -20 -8 -19 31 -12 52 8 21 22 25 1026
4 1068 -26 54 -47 58 -345 59 -187 1 -275 5 -280 13 -5 8 -8 7 -8 -1z"/>
<path d="M438 1709 c-25 -14 -23 -70 3 -103 26 -33 98 -80 107 -71 4 4 -4 15
-18 24 -134 89 -112 148 47 121 l74 -13 -7 -31 c-9 -43 -12 -46 -40 -46 -29 0
-32 -20 -4 -27 24 -6 24 -9 1 -48 -12 -20 -24 -29 -37 -26 -54 10 -107 5 -118
-12 -28 -44 66 -78 119 -43 21 14 27 13 67 -6 77 -37 158 -25 158 24 0 10 4
17 9 14 12 -8 26 12 40 55 14 43 51 83 51 56 0 -10 5 -17 10 -17 16 0 11 40
-6 47 -24 9 -67 -29 -84 -76 -12 -32 -19 -38 -28 -29 -17 17 -27 2 -12 -17 11
-14 10 -19 -8 -37 -19 -20 -25 -21 -74 -9 -81 18 -83 20 -57 74 23 47 33 53
88 48 15 -1 22 2 19 11 -3 7 -21 14 -41 16 -42 4 -41 2 -25 37 13 29 12 28 58
15 42 -12 90 -4 90 16 0 12 -8 13 -34 9 -42 -8 -76 1 -76 21 0 21 -31 30 -41
12 -8 -14 -15 -14 -70 3 -66 21 -134 24 -161 8z m242 -29 c-6 -11 -13 -20 -16
-20 -2 0 0 9 6 20 6 11 13 20 16 20 2 0 0 -9 -6 -20z m-120 -217 c8 -8 -25
-23 -51 -23 -26 0 -54 21 -43 32 6 6 86 -2 94 -9z"/>
<path d="M966 1688 c-9 -12 -16 -30 -16 -39 0 -9 -9 -42 -20 -74 -22 -65 -24
-79 -10 -70 6 3 7 -1 4 -10 -6 -14 -8 -14 -19 1 -11 16 -14 15 -33 -4 -12 -12
-28 -22 -36 -22 -22 0 -30 -19 -11 -26 10 -4 27 4 46 22 27 26 29 27 27 7 -5
-39 17 -27 42 24 24 48 70 103 70 84 0 -6 -4 -12 -9 -15 -14 -9 -51 -93 -51
-116 0 -13 7 -20 20 -20 21 0 28 26 9 32 -6 2 4 32 24 71 28 55 32 70 20 74
-8 3 -29 -9 -49 -28 l-35 -34 35 77 c19 42 32 79 29 82 -11 11 -22 6 -37 -16z"/>
<path d="M1291 1688 c-5 -13 -19 -59 -32 -103 -12 -44 -29 -92 -36 -107 -8
-17 -9 -29 -3 -33 16 -10 30 4 30 31 0 13 4 24 10 24 5 0 7 6 4 14 -3 8 0 17
7 22 9 5 11 -1 6 -23 -5 -24 -1 -35 17 -52 32 -30 39 -26 16 12 -28 45 -25 61
18 95 20 17 34 33 30 37 -4 4 -25 -7 -48 -25 -40 -32 -40 -32 -30 -6 5 14 18
43 30 65 11 22 20 47 20 56 0 23 -29 18 -39 -7z"/>
<path d="M1687 1703 c-3 -5 -17 -52 -32 -105 -18 -63 -31 -95 -39 -92 -7 3
-21 -4 -31 -16 -15 -17 -45 -28 -45 -16 0 12 32 92 42 104 10 12 13 10 20 -8
9 -25 28 -18 28 11 0 51 -71 22 -98 -39 -9 -21 -28 -47 -42 -59 l-27 -22 22
62 c19 52 27 62 49 65 31 4 35 22 5 22 -16 0 -19 4 -14 18 12 31 10 37 -9 37
-12 0 -23 -11 -30 -31 -6 -17 -16 -29 -23 -27 -6 2 -14 -1 -18 -7 -4 -7 1 -14
12 -16 19 -5 19 -6 0 -66 -16 -50 -17 -62 -6 -69 8 -5 23 -2 37 7 20 13 24 13
38 -1 22 -21 31 -19 66 15 30 30 30 30 24 6 -12 -50 14 -35 44 24 17 33 34 60
39 60 5 0 0 -17 -10 -37 -26 -51 -25 -93 1 -93 21 0 28 26 9 32 -7 2 0 27 20
67 17 35 31 67 31 72 0 21 -38 7 -59 -22 -36 -49 -35 -27 3 49 19 38 32 72 29
76 -9 8 -31 8 -36 -1z m-180 -75 c-3 -8 -6 -5 -6 6 -1 11 2 17 5 13 3 -3 4
-12 1 -19z m134 -135 c-12 -20 -14 -14 -5 12 4 9 9 14 11 11 3 -2 0 -13 -6
-23z"/>
<path d="M1065 1596 c-25 -25 -48 -94 -43 -129 2 -13 11 -23 24 -25 27 -4 74
50 74 85 l0 26 21 -27 c20 -25 47 -37 33 -14 -4 7 -3 8 4 4 20 -12 -5 -46 -33
-46 -16 0 -25 -6 -25 -15 0 -21 33 -19 64 6 33 26 33 42 -1 67 -28 20 -25 35
9 53 18 10 20 9 14 -6 -10 -27 5 -38 21 -15 22 31 9 54 -25 45 -15 -3 -35 -13
-44 -22 -20 -18 -38 -10 -38 18 0 26 -26 24 -55 -5z m49 -13 c4 -9 2 -21 -4
-27 -5 -5 -10 -17 -10 -25 0 -9 -11 -29 -25 -46 -21 -26 -24 -27 -25 -10 0 10
7 39 16 62 13 35 20 41 30 32 17 -14 19 2 2 19 -8 8 -8 12 -1 12 6 0 14 -8 17
-17z m33 -45 c-3 -8 -6 -5 -6 6 -1 11 2 17 5 13 3 -3 4 -12 1 -19z"/>
<path d="M1365 1576 c-32 -42 -39 -112 -13 -129 14 -9 22 -6 43 13 14 13 25
30 25 39 0 10 -9 6 -30 -14 -26 -25 -30 -26 -30 -9 0 28 11 40 43 48 34 8 43
29 29 62 -16 33 -36 30 -67 -10z m36 -29 c-16 -16 -26 0 -10 19 9 11 15 12 17
4 2 -6 -1 -17 -7 -23z m-38 -12 c-3 -9 -8 -14 -10 -11 -3 3 -2 9 2 15 9 16 15
13 8 -4z"/>
<path d="M112 1575 c0 -16 2 -22 5 -12 2 9 2 23 0 30 -3 6 -5 -1 -5 -18z"/>
<path d="M1748 1023 c7 -3 16 -2 19 1 4 3 -2 6 -13 5 -11 0 -14 -3 -6 -6z"/>
<path d="M345 940 c3 -5 11 -10 16 -10 6 0 7 5 4 10 -3 6 -11 10 -16 10 -6 0
-7 -4 -4 -10z"/>
<path d="M385 940 c-3 -5 1 -10 10 -10 9 0 13 5 10 10 -3 6 -8 10 -10 10 -2 0
-7 -4 -10 -10z"/>
<path d="M491 934 c0 -11 3 -14 6 -6 3 7 2 16 -1 19 -3 4 -6 -2 -5 -13z"/>
<path d="M1808 943 c7 -3 16 -2 19 1 4 3 -2 6 -13 5 -11 0 -14 -3 -6 -6z"/>
<path d="M1868 943 c7 -3 16 -2 19 1 4 3 -2 6 -13 5 -11 0 -14 -3 -6 -6z"/>
<path d="M1761 924 c0 -11 3 -14 6 -6 3 7 2 16 -1 19 -3 4 -6 -2 -5 -13z"/>
<path d="M1809 904 c-6 -7 -9 -19 -6 -26 3 -8 6 -5 6 6 1 14 7 17 26 14 14 -3
28 -2 30 2 9 14 -45 17 -56 4z"/>
<path d="M346 898 c3 -4 9 -8 15 -8 5 0 9 4 9 8 0 5 -7 9 -15 9 -8 0 -12 -4
-9 -9z"/>
<path d="M400 900 c0 -5 4 -10 9 -10 6 0 13 5 16 10 3 6 -1 10 -9 10 -9 0 -16
-4 -16 -10z"/>
<path d="M445 890 c-3 -6 1 -7 9 -4 18 7 21 14 7 14 -6 0 -13 -4 -16 -10z"/>
<path d="M1792 810 c0 -19 2 -27 5 -17 2 9 2 25 0 35 -3 9 -5 1 -5 -18z"/>
<path d="M571 814 c0 -11 3 -14 6 -6 3 7 2 16 -1 19 -3 4 -6 -2 -5 -13z"/>
<path d="M670 821 c0 -6 4 -13 10 -16 6 -3 7 1 4 9 -7 18 -14 21 -14 7z"/>
<path d="M943 806 c1 -17 9 -31 17 -33 10 -3 11 -2 4 4 -7 4 -14 19 -17 33 -4
22 -5 21 -4 -4z"/>
<path d="M1398 823 c7 -3 16 -2 19 1 4 3 -2 6 -13 5 -11 0 -14 -3 -6 -6z"/>
<path d="M706 812 c-2 -4 -1 -14 5 -22 7 -12 9 -10 9 8 0 23 -5 28 -14 14z"/>
<path d="M750 798 c0 -12 3 -18 7 -14 11 10 12 36 2 36 -5 0 -9 -10 -9 -22z"/>
<path d="M901 804 c0 -11 3 -14 6 -6 3 7 2 16 -1 19 -3 4 -6 -2 -5 -13z"/>
<path d="M1426 805 c-3 -8 -1 -15 4 -15 6 0 10 7 10 15 0 8 -2 15 -4 15 -2 0
-6 -7 -10 -15z"/>
<path d="M1612 800 c0 -14 2 -19 5 -12 2 6 2 18 0 25 -3 6 -5 1 -5 -13z"/>
<path d="M532 790 c0 -14 2 -19 5 -12 2 6 2 18 0 25 -3 6 -5 1 -5 -13z"/>
<path d="M1130 795 c0 -8 4 -15 10 -15 5 0 7 7 4 15 -4 8 -8 15 -10 15 -2 0
-4 -7 -4 -15z"/>
<path d="M660 780 c-9 -6 -10 -10 -3 -10 6 0 15 5 18 10 8 12 4 12 -15 0z"/>
<path d="M1234 775 c-10 -8 -14 -15 -8 -15 6 0 17 7 24 15 16 19 9 19 -16 0z"/>
<path d="M910 772 c0 -5 7 -9 15 -9 8 0 12 4 9 9 -3 4 -9 8 -15 8 -5 0 -9 -4
-9 -8z"/>
<path d="M1030 770 c-11 -7 -7 -10 18 -10 20 0 31 4 27 10 -8 13 -26 13 -45 0z"/>
<path d="M1165 769 c-20 -9 -20 -9 0 -7 11 2 26 -1 34 -6 9 -6 12 -5 9 4 -6
18 -18 21 -43 9z"/>
<path d="M1081 734 c0 -11 3 -14 6 -6 3 7 2 16 -1 19 -3 4 -6 -2 -5 -13z"/>
<path d="M1050 730 c0 -5 5 -10 11 -10 5 0 7 5 4 10 -3 6 -8 10 -11 10 -2 0
-4 -4 -4 -10z"/>
<path d="M141 804 c0 -11 3 -14 6 -6 3 7 2 16 -1 19 -3 4 -6 -2 -5 -13z"/>
</g>
</svg>
