<?xml version="1.0" encoding="iso-8859-1"?>
<!-- Uploaded to: SVG Repo, www.svgrepo.com, Generator: SVG Repo Mixer Tools -->
<svg version="1.1" id="Layer_1" xmlns="http://www.w3.org/2000/svg" xmlns:xlink="http://www.w3.org/1999/xlink" 
	 viewBox="0 0 504 504" xml:space="preserve">
<path style="fill:#DF5C4E;" d="M456.8,126H175.2c-25.2,0-49.2,22.4-49.2,47.6V378v77.6c0,25.2,24,46.4,49.2,46.4h281.6
	c25.2,0,45.2-21.6,45.2-46.4v-282C502,148.4,482,126,456.8,126z M450,447.6c0,1.2,0,2.4-1.2,2.4h-266c-1.2,0-4.8-1.2-4.8-2.4v-266
	c0-1.2,2-2,2.8-2c0,0,269.2,0.8,269.2,2V447.6z"/>
<g>
	<path style="fill:#E36D60;" d="M450,181.2V126h-60v54.4C418,180.8,442,181.2,450,181.2z"/>
	<rect x="390" y="450" style="fill:#E36D60;" width="60" height="52"/>
</g>
<path d="M452.4,504H171.6c-28.4,0-51.6-23.2-51.6-51.6V171.6c0-28.4,23.2-51.6,51.6-51.6h280.8c28.4,0,51.6,23.2,51.6,51.6v280.8
	C504,480.8,480.8,504,452.4,504z M171.6,128c-24,0-43.6,19.6-43.6,43.6v280.8c0,24,19.6,43.6,43.6,43.6h280.8
	c24,0,43.6-19.6,43.6-43.6V171.6c0-24-19.6-43.6-43.6-43.6L171.6,128L171.6,128z"/>
<path d="M122,384H56c-29.2,0-56-24.4-56-51.6v-282C0,23.6,26,0,56,0h277.6C362,0,384,22,384,50.4V122c0,2.4-1.6,4-4,4s-4-1.6-4-4
	V50.4C376,26.8,357.2,8,333.6,8H56C30.4,8,8,28,8,50.4v282C8,355.2,30.8,376,56,376h66c2.4,0,4,1.6,4,4S124.4,384,122,384z"/>
<path d="M448,452H180c-2.4,0-4-1.6-4-4V180c0-2.4,1.6-4,4-4h214c2.4,0,4,1.6,4,4s-1.6,4-4,4H184v260h260V178c0-2.4,1.6-4,4-4
	s4,1.6,4,4v270C452,450.4,450.4,452,448,452z"/>
</svg>